HIERARCHY
ROOT pelvis
{
  OFFSET 0 100 0
  CHANNELS 6 Xposition Yposition Zposition Zrotation Xrotation Yrotation
  JOINT pelvis_right_femur
  {
    OFFSET -10.78128 -3.44521 -0.5502486
    CHANNELS 3 Zrotation Xrotation Yrotation
    JOINT right_femur_tibia
    {
      OFFSET -0.8047443 -44.0398 -0.1307829
      CHANNELS 3 Zrotation Xrotation Yrotation
      JOINT right_tibia_foot
      {
        OFFSET 3.006224 -47.83518 -5
        CHANNELS 3 Zrotation Xrotation Yrotation
        End Site
        {
          OFFSET 0 -5 15
        }
      }
    }
  }
  JOINT pelvis_left_femur
  {
    OFFSET 10.78128 -3.44521 -0.5502486
    CHANNELS 3 Zrotation Xrotation Yrotation
    JOINT left_femur_tibia
    {
      OFFSET 0.8047443 -44.0398 -0.1307829
      CHANNELS 3 Zrotation Xrotation Yrotation
      JOINT left_tibia_foot
      {
        OFFSET -4.370144 -48.10324 -4.275266
        CHANNELS 3 Zrotation Xrotation Yrotation
        End Site
        {
          OFFSET 0 -5 15
        }
      }
    }
  }
  JOINT pelvis_spine1
  {
    OFFSET 0 6.468898 -3.129235
    CHANNELS 3 Zrotation Xrotation Yrotation
    JOINT spine1
    {
      OFFSET 0 23.15396 4.99043
      CHANNELS 3 Zrotation Xrotation Yrotation
      JOINT spine2
      {
        OFFSET 0 20.79997 -5.064912
        CHANNELS 3 Zrotation Xrotation Yrotation
        JOINT neck
        {
          OFFSET 0 14.38658 9.616178
          CHANNELS 3 Zrotation Xrotation Yrotation
          End Site
          {
            OFFSET 0 20 0
          }
        }
      }
      JOINT right_manubrium
      {
        OFFSET -5.722621 16.35077 3.967754
        CHANNELS 3 Zrotation Xrotation Yrotation
        JOINT right_clavicle
        {
          OFFSET -13.16364 1.694482 -4.693211
          CHANNELS 3 Zrotation Xrotation Yrotation
          JOINT right_humerus
          {
            OFFSET -28.5034 -0.3100689 -2.792744
            CHANNELS 3 Zrotation Xrotation Yrotation
            JOINT right_radius
            {
              OFFSET -25.15693 0.02248979 -1.271978
              CHANNELS 3 Zrotation Xrotation Yrotation
              End Site
              {
                OFFSET -15 0 0
              }
            }
          }
        }
      }
      JOINT left_manubrium
      {
        OFFSET 5.722621 16.35077 3.967754
        CHANNELS 3 Zrotation Xrotation Yrotation
        JOINT left_clavicle
        {
          OFFSET 13.16364 1.694482 -4.693211
          CHANNELS 3 Zrotation Xrotation Yrotation
          JOINT left_humerus
          {
            OFFSET 29.39168 -1.063119 -2.237045
            CHANNELS 3 Zrotation Xrotation Yrotation
            JOINT left_radius
            {
              OFFSET 24.59957 -0.9528479 0.9047498
              CHANNELS 3 Zrotation Xrotation Yrotation
              End Site
              {
                OFFSET 15 -0 -0
              }
            }
          }
        }
      }
    }
  }
}
MOTION
Frames: 9
Frame Time: 0.0416666666667
990.4203 98.49586 2889.589 4.104228 -4.640561 29.32829 0.8875035 20.00695 3.201455 -0 25.65243 -0 -1.761892 -10.39356 -2.089854 -1.327321 -22.92669 -6.054419 -0 18.03448 -0 -4.471107 -7.890965 20.63074 -2.225757 -0.1209944 7.501083 -0.8966926 8.680078 -2.626659 2.368638 23.045 4.525343 2.043565 -17.7665 6.616041 0.2673923 -20.98469 10.11294 81.04662 24.17967 -3.642314 -0 0 21.7489 -23.57311 7.81527 14.38726 4.098029 -14.34734 -1.96839 -93.91932 23.46141 25.16334 0 0 -5.485463 -0.4149165 7.361035 14.27443
994.849 98.66063 2895.176 4.645452 -4.463634 29.45051 -0.2137912 18.77181 3.545156 -0 33.45424 -0 -1.908946 -5.2925 -2.323199 -3.006862 -20.32408 -7.095556 -0 19.29475 -0 -3.506721 -8.602138 20.42144 -2.986505 -0.5670826 7.475921 -1.039147 9.201283 -2.798145 2.390726 22.86149 4.660561 2.310996 -18.18552 6.605508 0.6465326 -20.66775 10.10211 82.04148 24.45615 -4.881167 -0 0 20.61374 -23.52832 7.442501 14.28565 3.810463 -14.62134 -2.142483 -93.46261 23.45072 25.15701 0 0 -5.625984 -0.2406179 6.82656 14.53397
999.2473 99.4331 2900.68 5.21293 -4.600323 29.96468 -0.8153426 15.46426 3.9043 -0 42.24341 -0 -2.312795 0.3660699 -2.986008 -4.477664 -16.40197 -7.796713 -0 21.01814 -0 -2.301342 -9.707969 20.10049 -3.612155 -0.7255333 7.06445 -1.056369 9.992086 -3.254792 2.358816 22.67666 4.734762 2.43475 -18.64973 6.566403 1.079403 -20.27293 10.25864 83.58268 24.65529 -6.742353 -0 0 19.01075 -23.14613 7.239038 14.01851 3.422725 -15.24211 -2.557413 -92.50552 23.46689 24.48191 0 0 -6.524796 0.0607494 6.283085 14.72174
1003.45 100.6786 2905.932 5.566263 -4.983313 30.82952 -0.7214272 10.26594 4.114128 -0 50.08823 -0 -2.946116 5.198249 -3.949703 -5.419503 -11.41056 -7.962299 -0 21.74091 -0 -1.083405 -11.07623 19.58873 -3.913208 -0.5985665 6.186217 -0.8295101 10.89564 -4.093075 2.174795 22.5008 4.78246 2.34869 -19.12471 6.466797 1.432974 -19.9211 10.55409 85.48516 24.67005 -9.050482 -0 0 17.1663 -22.46316 7.134027 13.74141 2.997204 -16.20801 -3.185244 -91.08224 23.56615 23.07913 0 0 -8.294378 0.3407172 5.756703 14.8904
1007.346 102.0915 2910.817 5.605692 -5.459601 31.90113 -0.07873292 3.899698 4.082356 -0 54.70696 -0 -3.771384 7.854817 -4.999019 -5.796617 -5.819068 -7.702686 -0 20.71968 -0 -0.2030331 -12.5661 18.80593 -3.840079 -0.3063119 4.961208 -0.3181046 11.6604 -5.274396 1.818312 22.3899 4.839 2.103335 -19.47665 6.276051 1.589009 -19.63307 10.88312 87.43686 24.39828 -11.61305 -0 0 15.31302 -21.53889 6.955542 13.47975 2.665019 -17.45718 -3.94908 -89.36971 23.90074 20.97247 0 0 -10.94004 0.3706272 5.316455 15.15689
1010.897 103.3052 2915.315 5.419463 -5.826327 32.99419 0.6963814 -2.646827 3.769643 -0 54.61346 -0 -4.697167 7.779303 -5.932166 -5.82154 -0.2164355 -7.368876 -0 18.29835 -0 0.04662434 -14.1602 17.74292 -3.5389 -0.03152065 3.695897 0.3794601 12.04223 -6.588378 1.387562 22.40963 4.910114 1.839528 -19.57539 6.011011 1.506113 -19.3375 11.10817 89.1172 23.84117 -14.25369 -0 0 13.6432 -20.4527 6.596811 13.1019 2.562762 -18.85318 -4.731569 -87.65616 24.67984 18.38246 0 0 -14.30297 -0.06747175 5.134675 15.68314
1014.131 104.0357 2919.493 5.162527 -5.880661 33.96309 1.195326 -8.619955 3.166882 -0 49.95041 -0 -5.555839 5.541726 -6.639517 -5.759856 4.86171 -7.33583 -0 15.49471 -0 -0.4027475 -15.95905 16.50844 -3.25729 0.09782827 2.715445 1.073117 11.9171 -7.747049 1.04284 22.5742 4.98749 1.707131 -19.42075 5.755797 1.280637 -18.92538 11.14028 90.3045 23.23764 -16.8118 -0 0 12.26059 -19.30869 6.1756 12.44404 2.762835 -20.20852 -5.390571 -86.22162 26.0243 15.70102 0 0 -18.02706 -1.02875 5.440709 16.55636
1017.111 104.1615 2923.466 4.89519 -5.492722 34.74345 1.263647 -13.7884 2.337109 -0 42.25024 -0 -6.178662 2.423219 -7.090775 -5.753426 9.07542 -7.781012 -0 13.21343 -0 -1.381892 -18.01216 15.26721 -3.163643 0.07928289 2.177181 1.603771 11.32815 -8.546803 0.8996174 22.81004 5.074954 1.787825 -19.15281 5.610909 1.107874 -18.3201 10.9826 90.92727 22.99116 -19.13075 -0 0 11.18071 -18.21085 5.957646 11.47259 3.254818 -21.34851 -5.796899 -85.20941 27.79535 13.30281 0 0 -21.63267 -2.30551 6.315619 17.65873
1019.932 103.71 2927.36 4.557744 -4.671536 35.34856 1.026549 -18.30883 1.425273 -0 33.46011 -0 -6.494855 -0.3295484 -7.300733 -5.789817 12.33648 -8.60104 -0 11.85413 -0 -2.623353 -20.17109 14.12014 -3.252847 0.0003185069 2.021186 1.920833 10.44535 -8.955116 0.9707768 22.98872 5.182882 2.06941 -18.94019 5.62081 1.153413 -17.51506 10.70654 91.06235 23.39858 -21.07446 -0 0 10.35163 -17.23429 6.140312 10.32625 3.962365 -22.17749 -5.892323 -84.56919 29.58774 11.35312 0 0 -24.71081 -3.494773 7.573727 18.67406
